/* XPM */
static char *_550061635844[] = {
/* columns rows colors chars-per-pixel */
"64 64 211 2 ",
"   c gray44",
".  c #430000",
"X  c #4E0000",
"o  c #550009",
"O  c #690016",
"+  c #3C0000",
"@  c #4E4E4E",
"#  c gray36",
"$  c gray40",
"%  c gray16",
"&  c #434343",
"*  c gray28",
"=  c #555555",
"-  c #630011",
";  c #340000",
":  c gray49",
">  c #929292",
",  c #440000",
"<  c #350000",
"1  c #5D5A5C",
"2  c #868483",
"3  c #716E70",
"4  c #3D0000",
"5  c #4F4C4E",
"6  c #484547",
"7  c #360000",
"8  c #420000",
"9  c #380000",
"0  c #5E5153",
"q  c #7F7677",
"w  c #5E575A",
"e  c #504849",
"r  c #494041",
"t  c #444143",
"y  c #450000",
"u  c #490000",
"i  c #400000",
"p  c #390000",
"a  c #43292E",
"s  c #62494F",
"d  c #816A6F",
"f  c #5F5153",
"g  c #584E51",
"h  c #4C383D",
"j  c #453D3D",
"k  c #470000",
"l  c #4A0000",
"z  c #3B0000",
"x  c #4E353A",
"c  c #6E4C54",
"v  c #77565E",
"b  c #5A464A",
"n  c #4B3C3F",
"m  c #4A3D41",
"M  c #343434",
"N  c #868686",
"B  c #480000",
"V  c #410000",
"C  c #3F0000",
"Z  c #583239",
"A  c #703E48",
"S  c #82636A",
"D  c #644349",
"F  c #56373E",
"G  c #4C0000",
"H  c #500000",
"J  c #673941",
"K  c #723946",
"L  c #794B54",
"P  c #663B44",
"I  c #4F2F33",
"U  c #502E34",
"Y  c #4B0000",
"T  c #4D0000",
"R  c #520000",
"E  c #4D0D1C",
"W  c #6A2C39",
"Q  c #7B434F",
"!  c #7D3A47",
"~  c #693340",
"^  c #5D212E",
"/  c #54232D",
"(  c #510000",
")  c #5A0F1F",
"_  c #762A3A",
"`  c #5C232D",
"'  c #3C3C3C",
"]  c #510006",
"[  c #64081D",
"{  c #7F2E3E",
"}  c #822136",
"|  c #7F3241",
" . c #621023",
".. c #5C081E",
"X. c #591123",
"o. c #52262E",
"O. c #512D36",
"+. c #3E0000",
"@. c #570000",
"#. c #701428",
"$. c #7F001A",
"%. c #78001C",
"&. c #73041F",
"*. c #630D20",
"=. c #571A27",
"-. c #540003",
";. c #6E001B",
":. c #82001E",
">. c #7F0021",
",. c #800021",
"<. c #6A081F",
"1. c #6F182B",
"2. c #57000B",
"3. c #551E2A",
"4. c #512B32",
"5. c #460000",
"6. c #550003",
"7. c #6E1C30",
"8. c #860024",
"9. c #5D0000",
"0. c #720B23",
"q. c #4F091B",
"w. c #551120",
"e. c gray19",
"r. c #561B26",
"t. c #822639",
"y. c #5C0000",
"u. c #772435",
"i. c #6E2031",
"p. c #4B111E",
"a. c #481D27",
"s. c #481C24",
"d. c #48383C",
"f. c #493335",
"g. c #6B2836",
"h. c #7B3F4D",
"j. c #80293B",
"k. c #721026",
"l. c #893E4D",
"z. c #874653",
"x. c #692D38",
"c. c #491824",
"v. c #3F171D",
"b. c #391D24",
"n. c #342627",
"m. c #322D2E",
"M. c #312E31",
"N. c #45262D",
"B. c #5E363C",
"V. c #643E46",
"C. c #5A2A34",
"Z. c #5F1A2A",
"A. c #670016",
"S. c #7E3644",
"D. c #8E5663",
"F. c #8D5E67",
"G. c #713D48",
"H. c #543A3D",
"J. c #39292C",
"K. c #3D383A",
"L. c #3D3A3C",
"P. c #533E43",
"I. c #573338",
"U. c #501F28",
"Y. c #470314",
"T. c #510015",
"R. c #55000B",
"E. c #8F515E",
"W. c #8D5964",
"Q. c #845761",
"!. c #755E63",
"~. c #604B4D",
"^. c #514749",
"/. c #363032",
"(. c #726B6E",
"). c #4B2F34",
"_. c #4C0F1B",
"`. c #430D1A",
"'. c #460617",
"]. c #5B2730",
"[. c #825E67",
"{. c #82666C",
"}. c #6D4D52",
"|. c #736365",
" X c #353235",
".X c #422E32",
"XX c #47212A",
"oX c #462329",
"OX c #40161F",
"+X c #4A1621",
"@X c #42121D",
"#X c #76595F",
"$X c #6A575A",
"%X c #3F3233",
"&X c #3D1B1F",
"*X c #43111E",
"=X c #41151F",
"-X c #473A3D",
";X c #403134",
":X c #3E1A20",
">X c #3D2128",
",X c #3B151C",
"<X c #695B5E",
"1X c #321E21",
"2X c #686164",
"3X c #676466",
"4X c #2D2D2D",
"5X c #730020",
"6X c gray11",
"7X c #252525",
"8X c gray9",
/* pixels */
"      . X o o O o o o o o o o o o o o o o o X + . o o o o X X . @ #     $ $ $ $ % % % % % % % & # $ @ # @ @ * * * * @ = = # $   ",
"  $ $ @ . X o O o o o o o o o X o o o o o o X + . o o o X . . @ #     $   $     & % % % % % & # $ @ # @ * * @ @ = # # # # # # $ ",
"$ $ $ # @ . X - o o o o o o o o X X o o o o X + . o X X . & @ # # & o o o o & # # & % % % & # $ @ # @ * @ = # # # # # # # # # # ",
"@ $   $ # @ . - o o o o o o o o X X o o o o . + . X . . @ #   & o o . . + . + . # # & & & # $ @ # # # # # # = @ @ * * * * * * * ",
"* @ $ $   # . - o o o o o o o o o o o o o X . + . . @ #     & o . . . . + . + . &   # # # $ @ # = = = = = = = = = = = = = = = = ",
"* * @ $ $ $ . X o o o o o X o o o o o o X + + . @ #     # o o . . . . . + . + + ; # : > $ @ # @ * * * * * * * * * * * * * * * * ",
"* * * @ $   @ . X o o o o o o o o o o X + + & @ #     & o . . . . . . . + + . ; ; # >   @ # @ * * * * * & * * * * * * * * * * * ",
"* * * * @ $   @ . X o o o o o o o X X + . @ # #   # o o . . . . . . . . + + , < < 1 2 3 # @ * * * * * * * * * * * * * * * * * * ",
"* * * * & @   # @ . X o o o o X X + + @ # #     & o X . . . . . . + , , 4 < , < < 1 2 1 5 6 6 6 * & * * * * * * * * * & * * * * ",
"* * * * & &     # @ . X X X X + + @ #       # o o X . . . . . . , 4 , , 4 7 8 9 9 0 q w e r 6 6 t 6 * * * * * * * * * * * * * * ",
"* * * * & &   $   # @ + + + + & @ #     # & o X X . . . . . . , , , y y u 9 i p a s d f g h j r 6 6 & * * * * * * * * * * * * * ",
"* * * * & & $ $     # @ @ @ @ @ #     # o o X . . . X . . . , , , 7 k u l z 4 4 x c v s b n m m j 6 6 * * * * & & * * * * * * & ",
"* * * * & M $ $ # @ @ @ # $ N N : $ # o X X . X X . . . . . , , y 9 B u l V C C Z A S D F x n h r r 6 6 * * * & & * & & & & * * ",
"* * * & M #   # @ @ @ @ & # N : : # o . X X . X X . . . . , , y u p G l H i . . J K L P Z I x U h r 6 6 * * * * * * & & & & * * ",
"* * & M #   $ @ @ @ @ @ & & $ :   o X . o . . . . . . . . , , y k z Y T R y u E W Q ! ~ ^ / I x x m r 6 * * * * * * & & & & * * ",
"* & M #     # @ @ @ @ @ & & & # @ o . o X . . . . . . . . , y u . 4 H H ( G u ) _ ! ! W ` / / I h n r 6 6 * * * * * & & & & * & ",
"& M #     $ # @ @ @ @ @ ' * @ & # o . o . . X . . . . . , , y k 8 V X ( ] Y ( [ { } |  ...X.o.U O.n r r 6 * * * * * * * * * & M ",
"M # # & & # $ @ @ @ @ * ' @ @ # # o . X . . . . . . . . , , y B +.C R @.H ( H #.$.%.&.*.) ) =./ x n m r t * * * * * * * * & M ' ",
"# # & X X & # # @ @ @ ' ' @ @ @ $ o X X . . . . . . . . , , y B 4 u ( G u -.;.:.>.,.<.1.2...3.4.I h m r 6 * * * * * * & ' M ' ' ",
"# & X o . X &   & @ ' ' ' @ @ @ # # X X . . . . . . . . , , u i 4 5.. 5.6.7.8.>.,.,.9.0.#.q.w./ I h m r 6 * * * & ' M e.e.M ' # ",
"& X o . . . + # $ & ' @ ' @ @ @ &   & X . . . . . . . . , , 4 4 4 C k r.7.t.9.9.9.y.y.u.u.i.p.a.s.d.f.j t & ' ' M e.M ' M @ # # ",
"X o . . . . + &   # & @ ' @ @ @ & $ # + . . . . . . . . , , 7 p z C o.g.h.j.{ #.k.#.1.l.z.x.J c.v.b.n.m.M.e.e.e.M ' ' M @ #   & ",
"o . . . . . + + # $ & @ ' @ @ @ M #   & . . . . . . . . , < 7 9 N.B.V.C.^ Z. .*.A.*.S.z.D.F.G.D H.J.K.L.L.' ' ' ' ' M @ #   & X ",
". . . X . . + . #   # & ' @ @ * M #   # + . . . . . . . < < K.P.s s I.U.p.Y.q.T.R.T.Z.h.E.W.Q.!.~.^./.L.L.' ' ' M M @ #   & X o ",
". . . . . . + . &     # ' @ * & M #     & ; + . . . + ; ; 5 1 (.~.P.).c._.`.'.E E E _.].L [.{.}.|.0 e  XM M M M M @ #   # X o . ",
". . . . . . + . + #   $ M & & & M $ $   # ; ; ; ; ; ; ; ' 1 3 w ^.d..XXXoXOX_.Y.+X+X@Xa.}.#X$XH.^.(.1 5 M M M M @ #   # & o . . ",
". X X . . . ; . + @ $   # M M M $         & ; ; ; ; ' * =   5 5 j %Xd.f.a &Xs.*XoXoX=X).V.}.s -Xj 5 3 1 @ @ @ @ #   # & X . . . ",
". X X . . . ; . + &   : $ # # $   @ - - @ # & & * = =     @ 5 t L.K.-Xf.;X:X.Xa >Xa ,XP.s <X^.j j t 5       : :   $ & X . . . . ",
". . . X . . ; . + &   $ : $ $ # - - o o o o # # # $   $ @ @ & L.L.L.K.K.%Xn.a ;XJ.J.1XP.0 w j t t t & #   : :   $ # X . . . . . ",
". . . . . + ; . + &   $ $ $ $ - o o o o o o X     $ $ @ @ & ' ' L.t L.L.K.m.K.K././.j w 2X5 5 t t & & @ # $ $ # = @ X . . X X X ",
". . . . . + + . + @ $ : $ $ $ # o o o o o o .   $   @ @ @ ' ' ' ' ' L.L.L.M.L.L. XM.5 3X3 3 1 # # # # # #   $ = @ = X . . X X X ",
". . . . . ; + + + @     # @ #     o o o X . .     @ @ & @ ' ' ' ' ' ' ' ' e.' '  X4X# @ O O O O O O O O O . o O = # X . . X X X ",
". . . . + ; . + & #   # @ = @ #     X X . . #   @ @ & & @ & ' ' ' ' ' ' ' 4X' ' e.@ $ - - - o o o o o o o . o o o   X . . . . . ",
". . . . + ; + & # # # @ = @ @ @ #     # @ @   # @ & ' & @ & ' ' ' ' ' ' M 4X' M 4X@ # - o - o o o o o o o . o o X # X . . X . . ",
". . . . ; + & # #   @ = @ @ @ @ @ #   :   :   @ & ' ' & @ & ' ' ' ' ' ' M 4X' M 4X# @ 5Xo - o o X o o o o . o o X # X . . . . . ",
". . . + ; & # # $ # @ = @ @ @ @ @ @ #   : : : @ ' ' ' & @ * ' ' ' ' ' ' e.4X' 4X# $ & 5Xo - o o o o o o o . o o X # + . . . . . ",
". . . ; & # #     @ = @ @ @ @ @ @ @ @ # : N N @ ' ' ' & @ * ' ' ' ' ' ' e.4XM & $ $ - 5Xo - o o o o o o o . o o X # & + . . . . ",
". . + & # # $   # @ = @ @ @ @ @ @ @ @ @ # N N # ' ' ' & @ * & ' ' ' ' ' 4X4Xe.@   # - 5Xo - o o o o o o o X o o X # # & + . . . ",
". + & # # $   # @ = @ @ = @ @ @ @ @ & @ @ # : $ M ' ' & @ * & ' ' ' ' ' 4X4X4X#   @ - 5Xo o o o o o o o X X o o X #   # & + . . ",
"+ & # #     $ # @ @ @ @ @ @ @ @ @ @ @ & @ @ : : @ M M & @ & * ' ' ' ' ' 4X4X& $ $ - o 5Xo - o o o o o o X o o o . #     # & + + ",
"& # # : :   # @ @ @ @ @ = @ @ @ @ @ @ ' @ @ # $ $ 4XM M @ ' * ' ' ' ' ' 4X4X@   # - o 5X- o o o o o o o X o o o . #       # & & ",
"# # N N : # @ @ @ @ @ @ = @ @ @ @ @ @ ' & @ @ # # & 4Xe.4X' * ' ' ' ' ' 4X4X@   @ - o 5XO o o o o o o X o o o o . # % % M @ # # ",
"#   N N $ @ @ @ @ = = @ @ @ @ = @ @ @ & ' @ @ @ # @ & 4X4XM & & ' ' ' M 4X& # $ - o o O 5Xo o o o o o X o o o o . # % % % % M @ ",
"% & : : # @ @ @ = = = @ @ @ @ @ @ @ @ & ' @ @ @ @ & @ # @ e.e.& ' ' ' M 4X@ $   - o o - 5Xo o o o o X o o o o o . # % % % % 6X% ",
"% 6X&   @ @ @ @ = = = @ @ @ @ @ @ & @ & ' & @ @ @ & # # @ 4Xe.e.M ' ' M 4X#     X o o o O o o o o o o o o X o o . # % % % % 6X% ",
"% 6X& $ @ @ @ @ = = @ @ @ @ @ @ @ @ @ & ' & @ @ & M # : : @ 4Xe.e.' ' e.& $ $ $ # X o o - - o o o o o o o o o o . # % % % % 6X% ",
"6X& # # @ @ @ @ @ @ @ = @ @ @ @ @ & @ & ' & @ & M &   : :   @ 4Xe.M M 4X@   $ $   # X o o - o o o o o X X o o X . # % % % 6X% % ",
"& # # # & @ @ = = @ @ @ @ @ @ @ @ & @ & e.& & M & @   & . &   @ 4X4X4X4X$   # M M # # X X o - o o o o X X o X . & # % % % 6X% % ",
"# $ $ $ # & @ = = @ @ @ @ @ @ @ @ & @ & e.' M & @ # & X . + &   # @ @ #   # M % % M # $ # X o o o o o o o X . & # # 6X6X6X6X6X6X",
"    $ $   # & & @ @ @ @ @ @ @ @ @ & @ ' e.M & @ # & X . . + . + &       # M % % % % M # $ # X X o o o o X . & # $     & & & & & ",
"  $   : : : # & & @ @ @ @ @ @ @ & & @ ' e.& @ # & X . . . + . + . &     & M % % % % % M # $ $ @ X X X . . & # @ @ @ @ @ @ #     ",
"  @ - - @ : : # & M @ @ @ @ @ @ & & & e.& @ # & X . . . . + . + . +   # M 7X% % % 7X7X% M #   $ @ X . & & # # @ @ @ @ @ @ & #   ",
"- - o o - - @   # & M & @ @ @ & & & M & @ # & X . . . . . + . + . +   M % % 7X% % 7X7X% % M #   $ @ & & #   @ @ @ * @ @ @ & #   ",
"o o o o o o - - @ # & M & @ & & M M & # & & X . . . . + . + . + + & # M % % % 6X7X% % % % % M #   $ # # : # * * @ @ @ @ * & #   ",
"o X o o o o o o - . # & M & & M & @ # & X o X . . . . . . + + + & # M % % % % % 6X6X% 7X% % % M #   $ : : @ * * @ @ @ @ * & # - ",
"o o o o o o o X o . o o & M M & @ # & X o X . . . . . + . + + + @ M M % % % % % 7X6X6X7X% % % % M #   : # @ @ @ @ @ @ * & & # - ",
"o o X X o o o X o . o o X & & @ # & X X o X . . . . . + . + + & # M % % 7X7X% % % 7X6X6X7X% % % % M #   @ @ @ @ @ @ @ & & @ - o ",
"o o X X o o o X o . X . . @ @ # & X . X o . . . . . . + . + & # & M % % 7X7X7X% % 7X6X6X6X7X% % % % M #   @ @ @ @ @ & * & # - o ",
"o o o o o o X . X + . . @ # # & X . . X o . X . . . . + + + @ # M M % % 7X7X% 7X% % 6X6X6X6X7X% % % % M # # @ @ @ * & & @ - o o ",
"o o o o o o X . . + . @       & . . . X o . . . . . . + + & # M % M % % % % % % % % 7X6X6X7X6X7X% % % % M # * * * & * & @ - o o ",
"o o o o o o X . + + @         @ . . . X o . . . . . . + & # & M % M % % % % % % % % 7X6X6X6X7X6X7X% % % % 6X# * & @ @ & - o o o ",
"o o o o o o . + + @   @ ' @   # & . . X o . . . . . . + @ # M % % M % % % % 7X7X% % % 7X6X8X7X7X6X7X% % % 6X@ # @ @ * # - o o o ",
"o o o o o X . + @   @ ' ' ' @   @ . . X o . . . . . + & # M % % % M % % % % 7X7X% % % 7X6X8X6X% 6X6X7X% % 6X@   * * # - o o o o ",
"o o o o X + + @     ' ' ' ' ' @ # . . X . . . . . + & @ # % % % % M % % 7X% % % % % % 7X6X8X6X% 7X6X6X7X% 6X@     # # - o o o o "
};
