/* XPM */
static char *_550073343409[] = {
/* columns rows colors chars-per-pixel */
"64 64 55 1 ",
"  c #1D1D1D",
". c #202020",
"X c #222222",
"o c gray17",
"O c gray12",
"+ c #272727",
"@ c #1E1E1E",
"# c #2C2C2C",
"$ c gray31",
"% c gray16",
"& c gray15",
"* c #5B5B5B",
"= c #414141",
"- c #3F3F3F",
"; c gray24",
": c #3C3C3C",
"> c #4B4B4B",
", c #717171",
"< c #5F5F5F",
"1 c #464646",
"2 c gray18",
"3 c #444444",
"4 c #3A3A3A",
"5 c gray26",
"6 c gray34",
"7 c #535353",
"8 c gray14",
"9 c gray21",
"0 c #313131",
"q c #323232",
"w c #343434",
"e c gray22",
"r c #282828",
"t c #515151",
"y c gray35",
"u c #656565",
"i c #232323",
"p c #6A6A6A",
"a c #727272",
"s c gray38",
"d c #7E7E7E",
"f c gray43",
"g c gray52",
"h c gray51",
"j c #2F2F2F",
"k c gray42",
"l c #4E4E4E",
"z c gray28",
"x c gray39",
"c c gray48",
"v c #686868",
"b c #494949",
"n c #747474",
"m c gray33",
"M c #7B7B7B",
/* pixels */
"                                                                ",
"                                                                ",
"                                                                ",
".          Xooo...O                                             ",
"+@@@    @@@#$$$%%%&                                             ",
"+@@@    @@@#$$$%%%&                                             ",
"+@@@    @@@#$$$%%%&                                             ",
"*===-;;;:::>,,,<<<1OOO@                    X222:333ooo&         ",
"*===-;;;:::>,,,<<<1OOO@                    X222:333ooo&         ",
"*===-;;;:::>,,,<<<1OOO@                    X222:333ooo&         ",
">::::4444445666777=XXX@                    89995>>>:::0OOO@     ",
"qwww9999eeew###;;;9rrr.                    r333tyyyuuu>888O     ",
"qwww9999eeew###;;;9rrr.                    r333tyyyuuu>888O     ",
"qwww9999eeew###;;;9rrr.                    r333tyyyuuu>888O     ",
"i8888888&&&8XXX+++8...@                    .%%%tpppyyyy***qii.  ",
"                                            @@@taaa777sddd;&&i  ",
"                                            @@@taaa777sddd;&&i  ",
"                                            @@@taaa777sddd;&&i  ",
"&9998   ---;:::       8rrr              oww3fffusssgggghhh>99#  ",
"&9998   ---;:::       8rrr              oww3fffusssgggghhh>99#  ",
"&9998   ---;:::       8rrr              oww3fffusssgggghhh>99#  ",
"&0008@@@www9eeeOOO@   8%%%              r22=fffs***aaa,ffft11;jj",
"++++i...OOO8000888X   &ooo              X88ekkky$$$tttlzzz<kkpxx",
"++++i...OOO8000888X   &ooo              X88ekkky$$$tttlzzz<kkpxx",
"++++i...OOO8000888X   &ooo              X88ekkky$$$tttlzzz<kkpxx",
"@   @@@@+++i                                                    ",
"@   @@@@+++i                                                    ",
"@   @@@@+++i                                                    ",
"@@@@@@@@&&&X              888O                                  ",
"....OOOOXXX.              9998                                  ",
"....OOOOXXX.              9998                                  ",
"....OOOOXXX.              9998                                  ",
"@@@@@@@@@@@@          O...<<<>===iii.      Oiiiroooiiio;;;900%  ",
"                      .iiicccxyyy&&&i      O&&&2qqq+++w7773;;0  ",
"                      .iiicccxyyy&&&i      O&&&2qqq+++w7773;;0  ",
"                      .iiicccxyyy&&&i      O&&&2qqq+++w7773;;0  ",
".rrr9;;;       XXXreee9999ttt4jjj---q   X88j>>>x,,,6667lllkddv55",
".rrr9;;;       XXXreee9999ttt4jjj---q   X88j>>>x,,,6667lllkddv55",
".rrr9;;;       XXXreee9999ttt4jjj---q   X88j>>>x,,,6667lllkddv55",
"%###;111&&&i   ...82222222;;;jrrrqqqo   .XX%444z$$$===-444l66bww",
"-wwwl***444j                                                    ",
"-wwwl***444j                                                    ",
"-wwwl***444j                                                    ",
"                                           @XXX@                ",
"                                           @XXX@                ",
"                                           @XXX@                ",
"                                    @XXXi88o444r......O         ",
"                                    X222qwwbddd=%%%+++i         ",
"                                    X222qwwbddd=%%%+++i         ",
"                                    X222qwwbddd=%%%+++i         ",
"        ooow>>>888X              OOOjyyy3441sssz:::;;;:999%iio--",
"        qqq5ppprrr8              ...9nnnl;;3mmm>111bbbbzzzj&&wmm",
"        qqq5ppprrr8              ...9nnnl;;3mmm>111bbbbzzzj&&wmm",
"        qqq5ppprrr8              ...9nnnl;;3mmm>111bbbbzzzj&&wmm",
"=yyy2@@@0001MMMwww9eeejoooeeer...   @OOO@   @@@@@@@@@@@OOO@   @@",
"=yyy2@@@0001MMMwww9eeejoooeeer...   @OOO@   @@@@@@@@@@@OOO@   @@",
"=yyy2@@@0001MMMwww9eeejoooeeer...   @OOO@   @@@@@@@@@@@OOO@   @@",
"w===#888qqqebbbooo2qqqo+++999%888    @@@               @@@      ",
"2999#rrrqqqw999+++%jjjr&&&999o+++                               ",
"2999#rrrqqqw999+++%jjjr&&&999o+++                               ",
"2999#rrrqqqw999+++%jjjr&&&999o+++                               ",
"&&&&&&&&&&&&&&&&&&&&&&&&&&&&&&&&&&&&&&&&&&&&&&&&&&&&&&&&&&&&&&&&",
"&&&&&&&&&&&&&&&&&&&&&&&&&&&&&&&&&&&&&&&&&&&&&&&&&&&&&&&&&&&&&&&&",
"&&&&&&&&&&&&&&&&&&&&&&&&&&&&&&&&&&&&&&&&&&&&&&&&&&&&&&&&&&&&&&&&"
};
