/* XPM */
static char *_550072770659[] = {
/* columns rows colors chars-per-pixel */
"64 64 18 1 ",
"  c gray28",
". c gray32",
"X c #484848",
"o c #686868",
"O c gray46",
"+ c #606060",
"@ c gray37",
"# c #5D5D5D",
"$ c gray47",
"% c #565656",
"& c #585858",
"* c gray35",
"= c #5B5B5B",
"- c #535353",
"; c #5F5F5F",
": c gray31",
"> c gray29",
", c #494949",
/* pixels */
"                                                                ",
"                                                                ",
"                                                                ",
"        ..........XXXXXXXXXX          XXXXXXXXXXoooooooooo      ",
"        ..........XXXXXXXXXX          XXXXXXXXXXoooooooooo      ",
"        ..........XXXXXXXXXX          XXXXXXXXXXoooooooooo      ",
"        ..........XXXXXXXXXX          XXXXXXXXXXoooooooooo      ",
"        ..........XXXXXXXXXX          XXXXXXXXXXoooooooooo      ",
"        ..........XXXXXXXXXX          XXXXXXXXXXoooooooooo      ",
"        ..........XXXXXXXXXX          XXXXXXXXXXoooooooooo      ",
"        ..........XXXXXXXXXX          XXXXXXXXXXoooooooooo      ",
"        ..........XXXXXXXXXX          XXXXXXXXXXoooooooooo      ",
"        ..........XXXXXXXXXX          XXXXXXXXXXoooooooooo      ",
"        OOOOOOOOOO++++++++++@@@@@@@@@@##########$$$$$$$$$$      ",
"        OOOOOOOOOO++++++++++@@@@@@@@@@##########$$$$$$$$$$      ",
"        OOOOOOOOOO++++++++++@@@@@@@@@@##########$$$$$$$$$$      ",
"        OOOOOOOOOO++++++++++@@@@@@@@@@##########$$$$$$$$$$      ",
"        OOOOOOOOOO++++++++++@@@@@@@@@@##########$$$$$$$$$$      ",
"        OOOOOOOOOO++++++++++@@@@@@@@@@##########$$$$$$$$$$      ",
"        OOOOOOOOOO++++++++++@@@@@@@@@@##########$$$$$$$$$$      ",
"        OOOOOOOOOO++++++++++@@@@@@@@@@##########$$$$$$$$$$      ",
"        OOOOOOOOOO++++++++++@@@@@@@@@@##########$$$$$$$$$$      ",
"        OOOOOOOOOO++++++++++@@@@@@@@@@##########$$$$$$$$$$      ",
"        %%%%%%%%%%&&&&&&&&&&**********==========----------      ",
"        %%%%%%%%%%&&&&&&&&&&**********==========----------      ",
"        %%%%%%%%%%&&&&&&&&&&**********==========----------      ",
"        %%%%%%%%%%&&&&&&&&&&**********==========----------      ",
"        %%%%%%%%%%&&&&&&&&&&**********==========----------      ",
"        %%%%%%%%%%&&&&&&&&&&**********==========----------      ",
"        %%%%%%%%%%&&&&&&&&&&**********==========----------      ",
"        %%%%%%%%%%&&&&&&&&&&**********==========----------      ",
"        %%%%%%%%%%&&&&&&&&&&**********==========----------      ",
"        %%%%%%%%%%&&&&&&&&&&**********==========----------      ",
"                                                                ",
"                                                                ",
"                                                                ",
"                                                                ",
"                                                                ",
"                                                                ",
"                                                                ",
"                                                                ",
"                                                                ",
"                                                                ",
"        XXXXXXXXXX**********          ;;;;;;;;;;##########      ",
"        XXXXXXXXXX**********          ;;;;;;;;;;##########      ",
"        XXXXXXXXXX**********          ;;;;;;;;;;##########      ",
"        XXXXXXXXXX**********          ;;;;;;;;;;##########      ",
"        XXXXXXXXXX**********          ;;;;;;;;;;##########      ",
"        XXXXXXXXXX**********          ;;;;;;;;;;##########      ",
"        XXXXXXXXXX**********          ;;;;;;;;;;##########      ",
"        XXXXXXXXXX**********          ;;;;;;;;;;##########      ",
"        XXXXXXXXXX**********          ;;;;;;;;;;##########      ",
"        XXXXXXXXXX**********          ;;;;;;;;;;##########      ",
"        ::::::::::::::::::::>>>>>>>>>>,,,,,,,,,,%%%%%%%%%%      ",
"        ::::::::::::::::::::>>>>>>>>>>,,,,,,,,,,%%%%%%%%%%      ",
"        ::::::::::::::::::::>>>>>>>>>>,,,,,,,,,,%%%%%%%%%%      ",
"        ::::::::::::::::::::>>>>>>>>>>,,,,,,,,,,%%%%%%%%%%      ",
"        ::::::::::::::::::::>>>>>>>>>>,,,,,,,,,,%%%%%%%%%%      ",
"        ::::::::::::::::::::>>>>>>>>>>,,,,,,,,,,%%%%%%%%%%      ",
"        ::::::::::::::::::::>>>>>>>>>>,,,,,,,,,,%%%%%%%%%%      ",
"        ::::::::::::::::::::>>>>>>>>>>,,,,,,,,,,%%%%%%%%%%      ",
"        ::::::::::::::::::::>>>>>>>>>>,,,,,,,,,,%%%%%%%%%%      ",
"        ::::::::::::::::::::>>>>>>>>>>,,,,,,,,,,%%%%%%%%%%      ",
"                                                                "
};
